#OBJ
#T-FLEX CAD ObjGenerator generate date:14.05.2023 14:50:47
mtllib materials.mtl
v 0.07 0 0.131999
v 0.067614 0.018117 0.131999
v 0.057955 0.015529 0.131999
v -0.035 -0.060621 0.131999
v -0.029999 -0.051961 0.131999
v -0.042426 -0.042426 0.131999
v -0.067614 -0.018117 0.131999
v -0.057955 -0.015529 0.131999
v -0.059999 0 0.131999
v 0.060621 0.035 0.131999
v 0.051961 0.029999 0.131999
v 0.049497 0.049497 0.131999
v 0.042426 0.042426 0.131999
v 0.035 0.060621 0.131999
v 0.029999 0.051961 0.131999
v 0.018117 0.067614 0.131999
v 0.015529 0.057955 0.131999
v -0 0.07 0.131999
v -0 0.059999 0.131999
v -0.018117 0.067614 0.131999
v -0.015529 0.057955 0.131999
v -0.035 0.060621 0.131999
v -0.029999 0.051961 0.131999
v -0.049497 0.049497 0.131999
v -0.042426 0.042426 0.131999
v -0.060621 0.035 0.131999
v -0.051961 0.029999 0.131999
v -0.067614 0.018117 0.131999
v -0.057955 0.015529 0.131999
v -0.018117 -0.067614 0.131999
v -0.015529 -0.057955 0.131999
v 0 -0.07 0.131999
v 0 -0.059999 0.131999
v 0.018117 -0.067614 0.131999
v 0.015529 -0.057955 0.131999
v 0.035 -0.060621 0.131999
v 0.029999 -0.051961 0.131999
v 0.049497 -0.049497 0.131999
v 0.042426 -0.042426 0.131999
v 0.060621 -0.035 0.131999
v 0.051961 -0.029999 0.131999
v 0.067614 -0.018117 0.131999
v 0.057955 -0.015529 0.131999
v -0.07 -0 0.131999
v -0.060621 -0.035 0.131999
v -0.051961 -0.029999 0.131999
v -0.049497 -0.049497 0.131999
v 0.059999 0 0.131999
v 0.042426 -0.042426 0.119999
v 0.049497 -0.049497 0.119999
v 0.035 -0.060621 0.119999
v -0.057955 -0.015529 0.119999
v -0.067614 -0.018117 0.119999
v -0.07 0 0.119999
v -0.059999 -0 0.119999
v -0.051961 -0.029999 0.119999
v -0.042426 -0.042426 0.119999
v -0.049497 -0.049497 0.119999
v -0.060621 -0.035 0.119999
v 0.015529 -0.057955 0.119999
v 0.018117 -0.067614 0.119999
v 0 -0.07 0.119999
v -0.015529 -0.057955 0.119999
v -0.018117 -0.067614 0.119999
v -0.035 -0.060621 0.119999
v 0.015529 0.057955 0.119999
v 0.018117 0.067614 0.119999
v 0.035 0.060621 0.119999
v -0.029999 -0.051961 0.119999
v 0 -0.059999 0.119999
v 0.051961 -0.029999 0.119999
v 0.060621 -0.035 0.119999
v -0.042426 0.042426 0.119999
v -0.049497 0.049497 0.119999
v -0.035 0.060621 0.119999
v 0.029999 -0.051961 0.119999
v 0.057955 -0.015529 0.119999
v 0.067614 -0.018117 0.119999
v -0 0.059999 0.119999
v -0 0.07 0.119999
v -0.057955 0.015529 0.119999
v -0.067614 0.018117 0.119999
v -0.060621 0.035 0.119999
v 0.051961 0.029999 0.119999
v 0.060621 0.035 0.119999
v 0.067614 0.018117 0.119999
v -0.015529 0.057955 0.119999
v -0.018117 0.067614 0.119999
v -0.051961 0.029999 0.119999
v 0.057955 0.015529 0.119999
v 0.07 0 0.119999
v 0.042426 0.042426 0.119999
v 0.049497 0.049497 0.119999
v -0.029999 0.051961 0.119999
v 0.059999 0 0.119999
v 0.029999 0.051961 0.119999
v -0.057955 -0.015529 0.119999
v -0.059999 -0 0.119999
v -0.059999 0 0.131999
v -0.051961 -0.029999 0.119999
v -0.057955 -0.015529 0.131999
v -0.042426 -0.042426 0.119999
v -0.051961 -0.029999 0.131999
v -0.029999 -0.051961 0.119999
v -0.042426 -0.042426 0.131999
v -0.015529 -0.057955 0.119999
v -0.029999 -0.051961 0.131999
v 0 -0.059999 0.119999
v -0.015529 -0.057955 0.131999
v 0.015529 -0.057955 0.119999
v 0 -0.059999 0.131999
v 0.029999 -0.051961 0.119999
v 0.015529 -0.057955 0.131999
v 0.042426 -0.042426 0.119999
v 0.029999 -0.051961 0.131999
v 0.051961 -0.029999 0.119999
v 0.042426 -0.042426 0.131999
v 0.057955 -0.015529 0.119999
v 0.051961 -0.029999 0.131999
v 0.059999 0 0.119999
v 0.057955 -0.015529 0.131999
v 0.057955 0.015529 0.119999
v 0.059999 0 0.131999
v 0.051961 0.029999 0.119999
v 0.057955 0.015529 0.131999
v 0.042426 0.042426 0.119999
v 0.051961 0.029999 0.131999
v 0.029999 0.051961 0.119999
v 0.042426 0.042426 0.131999
v 0.015529 0.057955 0.119999
v 0.029999 0.051961 0.131999
v -0 0.059999 0.119999
v 0.015529 0.057955 0.131999
v -0.015529 0.057955 0.119999
v -0 0.059999 0.131999
v -0.029999 0.051961 0.119999
v -0.015529 0.057955 0.131999
v -0.042426 0.042426 0.119999
v -0.029999 0.051961 0.131999
v -0.051961 0.029999 0.119999
v -0.042426 0.042426 0.131999
v -0.057955 0.015529 0.119999
v -0.051961 0.029999 0.131999
v -0.057955 0.015529 0.131999
v -0.067614 0.018117 0.131999
v -0.067614 0.018117 0.119999
v -0.07 0 0.119999
v -0.060621 0.035 0.131999
v -0.060621 0.035 0.119999
v -0.049497 0.049497 0.131999
v -0.049497 0.049497 0.119999
v -0.035 0.060621 0.131999
v -0.035 0.060621 0.119999
v -0.018117 0.067614 0.131999
v -0.018117 0.067614 0.119999
v -0 0.07 0.131999
v -0 0.07 0.119999
v 0.018117 0.067614 0.131999
v 0.018117 0.067614 0.119999
v 0.035 0.060621 0.131999
v 0.035 0.060621 0.119999
v 0.049497 0.049497 0.131999
v 0.049497 0.049497 0.119999
v 0.060621 0.035 0.131999
v 0.060621 0.035 0.119999
v 0.067614 0.018117 0.131999
v 0.067614 0.018117 0.119999
v 0.07 0 0.131999
v 0.07 0 0.119999
v 0.067614 -0.018117 0.131999
v 0.067614 -0.018117 0.119999
v 0.060621 -0.035 0.131999
v 0.060621 -0.035 0.119999
v 0.049497 -0.049497 0.131999
v 0.049497 -0.049497 0.119999
v 0.035 -0.060621 0.131999
v 0.035 -0.060621 0.119999
v 0.018117 -0.067614 0.131999
v 0.018117 -0.067614 0.119999
v 0 -0.07 0.131999
v 0 -0.07 0.119999
v -0.018117 -0.067614 0.131999
v -0.018117 -0.067614 0.119999
v -0.035 -0.060621 0.131999
v -0.035 -0.060621 0.119999
v -0.049497 -0.049497 0.131999
v -0.049497 -0.049497 0.119999
v -0.060621 -0.035 0.131999
v -0.060621 -0.035 0.119999
v -0.067614 -0.018117 0.131999
v -0.067614 -0.018117 0.119999
v -0.07 -0 0.131999
vn 0 0 1
vn 0 0 1
vn 0 0 1
vn 0 0 1
vn 0 0 1
vn 0 0 1
vn 0 0 1
vn 0 0 1
vn 0 0 1
vn 0 0 1
vn 0 0 1
vn 0 0 1
vn 0 0 1
vn 0 0 1
vn 0 0 1
vn 0 0 1
vn 0 0 1
vn 0 0 1
vn 0 0 1
vn 0 0 1
vn 0 0 1
vn 0 0 1
vn 0 0 1
vn 0 0 1
vn 0 0 1
vn 0 0 1
vn 0 0 1
vn 0 0 1
vn 0 0 1
vn 0 0 1
vn 0 0 1
vn 0 0 1
vn 0 0 1
vn 0 0 1
vn 0 0 1
vn 0 0 1
vn 0 0 1
vn 0 0 1
vn 0 0 1
vn 0 0 1
vn 0 0 1
vn 0 0 1
vn 0 0 1
vn 0 0 1
vn 0 0 1
vn 0 0 1
vn 0 0 1
vn 0 0 1
vn 0 0 -1
vn 0 0 -1
vn 0 0 -1
vn 0 0 -1
vn 0 0 -1
vn 0 0 -1
vn 0 0 -1
vn 0 0 -1
vn 0 0 -1
vn 0 0 -1
vn 0 0 -1
vn 0 0 -1
vn 0 0 -1
vn 0 0 -1
vn 0 0 -1
vn 0 0 -1
vn 0 0 -1
vn 0 0 -1
vn 0 0 -1
vn 0 0 -1
vn 0 0 -1
vn 0 0 -1
vn 0 0 -1
vn 0 0 -1
vn 0 0 -1
vn 0 0 -1
vn 0 0 -1
vn 0 0 -1
vn 0 0 -1
vn 0 0 -1
vn 0 0 -1
vn 0 0 -1
vn 0 0 -1
vn 0 0 -1
vn 0 0 -1
vn 0 0 -1
vn 0 0 -1
vn 0 0 -1
vn 0 0 -1
vn 0 0 -1
vn 0 0 -1
vn 0 0 -1
vn 0 0 -1
vn 0 0 -1
vn 0 0 -1
vn 0 0 -1
vn 0 0 -1
vn 0 0 -1
vn 0.965925 0.258819 0
vn 1 0 0
vn 1 0 0
vn 0.866025 0.5 0
vn 0.965925 0.258819 0
vn 0.707106 0.707106 0
vn 0.866025 0.5 0
vn 0.5 0.866025 0
vn 0.707106 0.707106 0
vn 0.258819 0.965925 0
vn 0.5 0.866025 0
vn -0 1 0
vn 0.258819 0.965925 0
vn -0.258819 0.965925 0
vn -0 1 0
vn -0.5 0.866025 0
vn -0.258819 0.965925 0
vn -0.707106 0.707106 0
vn -0.5 0.866025 0
vn -0.866025 0.5 0
vn -0.707106 0.707106 0
vn -0.965925 0.258819 0
vn -0.866025 0.5 0
vn -1 -0 0
vn -0.965925 0.258819 0
vn -0.965925 -0.258819 0
vn -1 -0 0
vn -0.866025 -0.5 0
vn -0.965925 -0.258819 0
vn -0.707106 -0.707106 0
vn -0.866025 -0.5 0
vn -0.5 -0.866025 0
vn -0.707106 -0.707106 0
vn -0.258819 -0.965925 0
vn -0.5 -0.866025 0
vn 0 -1 0
vn -0.258819 -0.965925 0
vn 0.258819 -0.965925 0
vn 0 -1 0
vn 0.5 -0.866025 0
vn 0.258819 -0.965925 0
vn 0.707106 -0.707106 0
vn 0.5 -0.866025 0
vn 0.866025 -0.5 0
vn 0.707106 -0.707106 0
vn 0.965925 -0.258819 0
vn 0.866025 -0.5 0
vn 0.965925 -0.258819 0
vn -0.965925 0.258819 0
vn -0.965925 0.258819 0
vn -1 0 0
vn -0.866025 0.5 0
vn -0.866025 0.5 0
vn -0.707106 0.707106 0
vn -0.707106 0.707106 0
vn -0.5 0.866025 0
vn -0.5 0.866025 0
vn -0.258819 0.965925 0
vn -0.258819 0.965925 0
vn -0 1 0
vn -0 1 0
vn 0.258819 0.965925 0
vn 0.258819 0.965925 0
vn 0.5 0.866025 0
vn 0.5 0.866025 0
vn 0.707106 0.707106 0
vn 0.707106 0.707106 0
vn 0.866025 0.5 0
vn 0.866025 0.5 0
vn 0.965925 0.258819 0
vn 0.965925 0.258819 0
vn 1 0 0
vn 1 0 0
vn 0.965925 -0.258819 0
vn 0.965925 -0.258819 0
vn 0.866025 -0.5 0
vn 0.866025 -0.5 0
vn 0.707106 -0.707106 0
vn 0.707106 -0.707106 0
vn 0.5 -0.866025 0
vn 0.5 -0.866025 0
vn 0.258819 -0.965925 0
vn 0.258819 -0.965925 0
vn 0 -1 0
vn 0 -1 0
vn -0.258819 -0.965925 0
vn -0.258819 -0.965925 0
vn -0.5 -0.866025 0
vn -0.5 -0.866025 0
vn -0.707106 -0.707106 0
vn -0.707106 -0.707106 0
vn -0.866025 -0.5 0
vn -0.866025 -0.5 0
vn -0.965925 -0.258819 0
vn -0.965925 -0.258819 0
vn -1 0 0
usemtl App0
f 1//1 2//2 3//3
f 4//4 5//5 6//6
f 7//7 8//8 9//9
f 2//2 10//10 11//11
f 11//11 3//3 2//2
f 12//12 13//13 11//11
f 14//14 15//15 13//13
f 14//14 16//16 17//17
f 18//18 19//19 17//17
f 18//18 20//20 21//21
f 22//22 23//23 21//21
f 22//22 24//24 25//25
f 26//26 27//27 25//25
f 26//26 28//28 29//29
f 4//4 30//30 31//31
f 32//32 33//33 31//31
f 32//32 34//34 35//35
f 36//36 37//37 35//35
f 36//36 38//38 39//39
f 38//38 40//40 41//41
f 40//40 42//42 43//43
f 11//11 10//10 12//12
f 17//17 15//15 14//14
f 21//21 19//19 18//18
f 25//25 23//23 22//22
f 29//29 27//27 26//26
f 44//44 9//9 29//29
f 45//45 46//46 8//8
f 45//45 47//47 6//6
f 31//31 5//5 4//4
f 35//35 33//33 32//32
f 39//39 37//37 36//36
f 43//43 41//41 40//40
f 13//13 12//12 14//14
f 21//21 20//20 22//22
f 29//29 28//28 44//44
f 6//6 46//46 45//45
f 31//31 30//30 32//32
f 41//41 39//39 38//38
f 1//1 48//48 43//43
f 17//17 16//16 18//18
f 9//9 44//44 7//7
f 6//6 47//47 4//4
f 43//43 42//42 1//1
f 25//25 24//24 26//26
f 35//35 34//34 36//36
f 8//8 7//7 45//45
f 3//3 48//48 1//1
f 49//49 50//50 51//51
f 52//52 53//53 54//54
f 54//54 55//55 52//52
f 56//56 57//57 58//58
f 52//52 56//56 59//59
f 60//60 61//61 62//62
f 59//59 53//53 52//52
f 58//58 59//59 56//56
f 63//63 64//64 65//65
f 66//66 67//67 68//68
f 57//57 69//69 65//65
f 63//63 70//70 62//62
f 49//49 71//71 72//72
f 73//73 74//74 75//75
f 65//65 58//58 57//57
f 65//65 69//69 63//63
f 62//62 64//64 63//63
f 62//62 70//70 60//60
f 60//60 76//76 51//51
f 77//77 78//78 72//72
f 66//66 79//79 80//80
f 81//81 82//82 83//83
f 51//51 61//61 60//60
f 51//51 76//76 49//49
f 55//55 54//54 82//82
f 84//84 85//85 86//86
f 80//80 67//67 66//66
f 79//79 87//87 88//88
f 73//73 89//89 83//83
f 82//82 81//81 55//55
f 72//72 50//50 49//49
f 72//72 71//71 77//77
f 90//90 86//86 91//91
f 84//84 92//92 93//93
f 88//88 80//80 79//79
f 83//83 74//74 73//73
f 87//87 94//94 75//75
f 83//83 89//89 81//81
f 77//77 95//95 91//91
f 86//86 90//90 84//84
f 93//93 85//85 84//84
f 92//92 96//96 68//68
f 75//75 88//88 87//87
f 75//75 94//94 73//73
f 91//91 78//78 77//77
f 91//91 95//95 90//90
f 68//68 93//93 92//92
f 68//68 96//96 66//66
f 97//97 98//98 99//99
f 100//100 97//97 101//101
f 102//102 100//100 103//103
f 104//104 102//102 105//105
f 106//106 104//104 107//107
f 108//108 106//106 109//109
f 110//110 108//108 111//111
f 112//112 110//110 113//113
f 114//114 112//112 115//115
f 116//116 114//114 117//117
f 118//118 116//116 119//119
f 120//120 118//118 121//121
f 122//122 120//120 123//123
f 124//124 122//122 125//125
f 126//126 124//124 127//127
f 128//128 126//126 129//129
f 130//130 128//128 131//131
f 132//132 130//130 133//133
f 134//134 132//132 135//135
f 136//136 134//134 137//137
f 138//138 136//136 139//139
f 140//140 138//138 141//141
f 142//142 140//140 143//143
f 98//98 142//142 144//144
f 144//144 99//99 98//98
f 143//143 144//144 142//142
f 141//141 143//143 140//140
f 139//139 141//141 138//138
f 137//137 139//139 136//136
f 135//135 137//137 134//134
f 133//133 135//135 132//132
f 131//131 133//133 130//130
f 129//129 131//131 128//128
f 127//127 129//129 126//126
f 125//125 127//127 124//124
f 123//123 125//125 122//122
f 121//121 123//123 120//120
f 119//119 121//121 118//118
f 117//117 119//119 116//116
f 115//115 117//117 114//114
f 113//113 115//115 112//112
f 111//111 113//113 110//110
f 109//109 111//111 108//108
f 107//107 109//109 106//106
f 105//105 107//107 104//104
f 103//103 105//105 102//102
f 101//101 103//103 100//100
f 99//99 101//101 97//97
f 145//145 146//146 147//147
f 148//148 149//149 146//146
f 150//150 151//151 149//149
f 152//152 153//153 151//151
f 154//154 155//155 153//153
f 156//156 157//157 155//155
f 158//158 159//159 157//157
f 160//160 161//161 159//159
f 162//162 163//163 161//161
f 164//164 165//165 163//163
f 166//166 167//167 165//165
f 168//168 169//169 167//167
f 170//170 171//171 169//169
f 172//172 173//173 171//171
f 174//174 175//175 173//173
f 176//176 177//177 175//175
f 178//178 179//179 177//177
f 180//180 181//181 179//179
f 182//182 183//183 181//181
f 184//184 185//185 183//183
f 186//186 187//187 185//185
f 188//188 189//189 187//187
f 190//190 191//191 189//189
f 147//147 192//192 145//145
f 191//191 190//190 192//192
f 189//189 188//188 190//190
f 187//187 186//186 188//188
f 185//185 184//184 186//186
f 183//183 182//182 184//184
f 181//181 180//180 182//182
f 179//179 178//178 180//180
f 177//177 176//176 178//178
f 175//175 174//174 176//176
f 173//173 172//172 174//174
f 171//171 170//170 172//172
f 169//169 168//168 170//170
f 167//167 166//166 168//168
f 165//165 164//164 166//166
f 163//163 162//162 164//164
f 161//161 160//160 162//162
f 159//159 158//158 160//160
f 157//157 156//156 158//158
f 155//155 154//154 156//156
f 153//153 152//152 154//154
f 151//151 150//150 152//152
f 149//149 148//148 150//150
f 146//146 145//145 148//148
f 192//192 147//147 191//191
v 0.1 0.1 0.119999
v -0.1 0.1 0.119999
v -0.1 -0.1 0.119999
v 0.1 -0.1 0.119999
v 0.1 -0.1 0
v -0.1 -0.1 0
v -0.1 0.1 0
v 0.1 0.1 0
v 0.1 0.1 0.119999
v 0.1 0.1 0
v -0.1 0.1 0
v -0.1 0.1 0.119999
v 0.1 -0.1 0.119999
v 0.1 -0.1 0
v 0.1 0.1 0
v 0.1 0.1 0.119999
v -0.1 -0.1 0.119999
v -0.1 -0.1 0
v 0.1 -0.1 0
v 0.1 -0.1 0.119999
v -0.1 0.1 0.119999
v -0.1 0.1 0
v -0.1 -0.1 0
v -0.1 -0.1 0.119999
vn 0 0 1
vn 0 0 1
vn 0 0 1
vn 0 0 1
vn 0 0 -1
vn 0 0 -1
vn 0 0 -1
vn 0 0 -1
vn 0 1 0
vn 0 1 0
vn 0 1 0
vn 0 1 0
vn 1 0 0
vn 1 0 0
vn 1 0 0
vn 1 0 0
vn 0 -1 0
vn 0 -1 0
vn 0 -1 0
vn 0 -1 0
vn -1 0 0
vn -1 0 0
vn -1 0 0
vn -1 0 0
usemtl App1
f 193//193 194//194 195//195
f 195//195 196//196 193//193
f 197//197 198//198 199//199
f 199//199 200//200 197//197
f 201//201 202//202 203//203
f 203//203 204//204 201//201
f 205//205 206//206 207//207
f 207//207 208//208 205//205
f 209//209 210//210 211//211
f 211//211 212//212 209//209
f 213//213 214//214 215//215
f 215//215 216//216 213//213
