#OBJ
#T-FLEX CAD ObjGenerator generate date:14.05.2023 17:50:7
v 0 0 0
v -0.057858 0.015503 0
v -0.051874 0.02995 0
v -0.042355 0.042355 0
v -0.02995 0.051874 0
v -0.015503 0.057858 0
v -0 0.0599 0
v 0.015503 0.057858 0
v 0.02995 0.051874 0
v 0.042355 0.042355 0
v 0.051874 0.02995 0
v 0.057858 0.015503 0
v 0.0599 0 0
v 0.057858 -0.015503 0
v 0.051874 -0.02995 0
v 0.042355 -0.042355 0
v 0.02995 -0.051874 0
v 0.015503 -0.057858 0
v 0 -0.0599 0
v -0.015503 -0.057858 0
v -0.02995 -0.051874 0
v -0.042355 -0.042355 0
v -0.051874 -0.02995 0
v -0.057858 -0.015503 0
v -0.0599 0 0
v 0.015503 0.057858 0.25
v 0.0649 0.009999 0.25
v 0.054433 0.025 0.25
v 0.084899 0.025 0.25
v -0.015503 -0.057858 0.25
v 0 -0.0599 0.25
v -0.015503 0.057858 0.25
v -0.02995 0.051874 0.25
v -0.02995 -0.051874 0.25
v 0.02995 -0.051874 0.25
v 0.042355 -0.042355 0.25
v 0.051874 -0.02995 0.25
v 0.084899 0.009999 0.25
v -0.042355 -0.042355 0.25
v -0.051874 0.02995 0.25
v 0.084899 -0.025 0.25
v 0.084899 -0.009999 0.25
v 0.0649 -0.009999 0.25
v 0.054433 -0.025 0.25
v 0.015503 -0.057858 0.25
v 0.02995 0.051874 0.25
v 0.051874 0.02995 0.25
v -0.051874 -0.02995 0.25
v -0.057858 0.015503 0.25
v -0.0599 0 0.25
v 0.042355 0.042355 0.25
v -0.057858 -0.015503 0.25
v -0.042355 0.042355 0.25
v -0 0.0599 0.25
v 0.054433 -0.025 0.15
v 0.084899 -0.025 0.15
v 0.084899 -0.025 0.25
v 0.054433 -0.025 0.25
v 0.084899 -0.009999 0.15
v 0.084899 -0.009999 0.25
v 0.084899 -0.025 0.25
v 0.084899 -0.025 0.15
v 0.0649 -0.009999 0.15
v 0.0649 -0.009999 0.25
v 0.084899 -0.009999 0.25
v 0.084899 -0.009999 0.15
v 0.0649 0.009999 0.15
v 0.0649 0.009999 0.25
v 0.0649 -0.009999 0.25
v 0.0649 -0.009999 0.15
v 0.084899 0.009999 0.15
v 0.084899 0.009999 0.25
v 0.0649 0.009999 0.25
v 0.0649 0.009999 0.15
v 0.084899 0.025 0.15
v 0.084899 0.025 0.25
v 0.084899 0.009999 0.25
v 0.084899 0.009999 0.15
v 0.084899 0.025 0.25
v 0.084899 0.025 0.15
v 0.054433 0.025 0.15
v 0.054433 0.025 0.25
v 0.084899 -0.025 0.15
v 0.054433 -0.025 0.15
v 0.057858 -0.015503 0.15
v 0.0649 -0.009999 0.15
v 0.0599 0 0.15
v 0.084899 0.025 0.15
v 0.084899 0.009999 0.15
v 0.0649 0.009999 0.15
v 0.057858 0.015503 0.15
v 0.054433 0.025 0.15
v 0.084899 -0.009999 0.15
v 0.051874 0.02995 0.25
v 0.054433 0.025 0.25
v 0.054433 0.025 0.15
v 0.051874 0.02995 0
v 0.057858 0.015503 0
v 0.057858 0.015503 0.15
v 0.0599 0 0.15
v 0.051874 -0.02995 0.25
v 0.051874 -0.02995 0
v 0.054433 -0.025 0.15
v 0.057858 -0.015503 0
v 0.057858 -0.015503 0.15
v 0.0599 0 0
v -0.0599 0 0.25
v -0.0599 0 0
v -0.057858 -0.015503 0
v -0.057858 -0.015503 0.25
v -0.051874 -0.02995 0
v -0.051874 -0.02995 0.25
v -0.042355 -0.042355 0
v -0.042355 -0.042355 0.25
v -0.02995 -0.051874 0
v -0.02995 -0.051874 0.25
v -0.015503 -0.057858 0
v 0.042355 0.042355 0
v 0.042355 0.042355 0.25
v 0 -0.0599 0.25
v 0 -0.0599 0
v 0.015503 -0.057858 0
v -0 0.0599 0.25
v -0 0.0599 0
v -0.015503 0.057858 0
v -0.015503 0.057858 0.25
v -0.02995 0.051874 0
v -0.02995 0.051874 0.25
v -0.042355 0.042355 0
v -0.042355 0.042355 0.25
v -0.051874 0.02995 0
v -0.051874 0.02995 0.25
v -0.057858 0.015503 0
v -0.057858 0.015503 0.25
v -0.015503 -0.057858 0.25
v 0.015503 -0.057858 0.25
v 0.02995 -0.051874 0
v 0.02995 -0.051874 0.25
v 0.042355 -0.042355 0
v 0.042355 -0.042355 0.25
v 0.015503 0.057858 0.25
v 0.02995 0.051874 0.25
v 0.02995 0.051874 0
v 0.015503 0.057858 0
v 0.054433 -0.025 0.25
vn 0 0 -1
vn 0 0 -1
vn 0 0 -1
vn 0 0 -1
vn 0 0 -1
vn 0 0 -1
vn 0 0 -1
vn 0 0 -1
vn 0 0 -1
vn 0 0 -1
vn 0 0 -1
vn 0 0 -1
vn 0 0 -1
vn 0 0 -1
vn 0 0 -1
vn 0 0 -1
vn 0 0 -1
vn 0 0 -1
vn 0 0 -1
vn 0 0 -1
vn 0 0 -1
vn 0 0 -1
vn 0 0 -1
vn 0 0 -1
vn 0 0 -1
vn 0 0 1
vn 0 0 1
vn 0 0 1
vn 0 0 1
vn 0 0 1
vn 0 0 1
vn 0 0 1
vn 0 0 1
vn 0 0 1
vn 0 0 1
vn 0 0 1
vn 0 0 1
vn 0 0 1
vn 0 0 1
vn 0 0 1
vn 0 0 1
vn 0 0 1
vn 0 0 1
vn 0 0 1
vn 0 0 1
vn 0 0 1
vn 0 0 1
vn 0 0 1
vn 0 0 1
vn 0 0 1
vn 0 0 1
vn 0 0 1
vn 0 0 1
vn 0 0 1
vn 0 -1 0
vn 0 -1 0
vn 0 -1 0
vn 0 -1 0
vn 1 0 0
vn 1 0 0
vn 1 0 0
vn 1 0 0
vn -0 1 0
vn -0 1 0
vn -0 1 0
vn -0 1 0
vn 1 0 0
vn 1 0 0
vn 1 0 0
vn 1 0 0
vn 0 -1 0
vn 0 -1 0
vn 0 -1 0
vn 0 -1 0
vn 1 0 0
vn 1 0 0
vn 1 0 0
vn 1 0 0
vn -0 1 0
vn -0 1 0
vn -0 1 0
vn -0 1 0
vn 0 0 -1
vn 0 0 -1
vn 0 0 -1
vn 0 0 -1
vn 0 0 -1
vn 0 0 -1
vn 0 0 -1
vn 0 0 -1
vn 0 0 -1
vn 0 0 -1
vn 0 0 -1
vn 0.866025 0.5 0
vn 0.90874 0.417362 0
vn 0.90874 0.417362 0
vn 0.866025 0.5 0
vn 0.965925 0.258819 0
vn 0.965925 0.258819 0
vn 1 0 0
vn 0.866025 -0.5 0
vn 0.866025 -0.5 0
vn 0.90874 -0.417362 0
vn 0.965925 -0.258819 0
vn 0.965925 -0.258819 0
vn 1 0 0
vn -1 0 0
vn -1 0 0
vn -0.965925 -0.258819 0
vn -0.965925 -0.258819 0
vn -0.866025 -0.5 0
vn -0.866025 -0.5 0
vn -0.707106 -0.707106 0
vn -0.707106 -0.707106 0
vn -0.5 -0.866025 0
vn -0.5 -0.866025 0
vn -0.258819 -0.965925 0
vn 0.707106 0.707106 0
vn 0.707106 0.707106 0
vn 0 -1 0
vn 0 -1 0
vn 0.258819 -0.965925 0
vn -0 1 0
vn -0 1 0
vn -0.258819 0.965925 0
vn -0.258819 0.965925 0
vn -0.5 0.866025 0
vn -0.5 0.866025 0
vn -0.707106 0.707106 0
vn -0.707106 0.707106 0
vn -0.866025 0.5 0
vn -0.866025 0.5 0
vn -0.965925 0.258819 0
vn -0.965925 0.258819 0
vn -0.258819 -0.965925 0
vn 0.258819 -0.965925 0
vn 0.5 -0.866025 0
vn 0.5 -0.866025 0
vn 0.707106 -0.707106 0
vn 0.707106 -0.707106 0
vn 0.258819 0.965925 0
vn 0.5 0.866025 0
vn 0.5 0.866025 0
vn 0.258819 0.965925 0
vn 0.90874 -0.417362 0
f 1//1 2//2 3//3
f 3//3 4//4 1//1
f 4//4 5//5 1//1
f 5//5 6//6 1//1
f 6//6 7//7 1//1
f 7//7 8//8 1//1
f 8//8 9//9 1//1
f 9//9 10//10 1//1
f 10//10 11//11 1//1
f 11//11 12//12 1//1
f 12//12 13//13 1//1
f 13//13 14//14 1//1
f 14//14 15//15 1//1
f 15//15 16//16 1//1
f 16//16 17//17 1//1
f 17//17 18//18 1//1
f 18//18 19//19 1//1
f 19//19 20//20 1//1
f 20//20 21//21 1//1
f 21//21 22//22 1//1
f 22//22 23//23 1//1
f 23//23 24//24 1//1
f 24//24 25//25 1//1
f 25//25 2//2 1//1
f 26//26 27//27 28//28
f 29//29 28//28 27//27
f 30//30 31//31 26//26
f 32//32 33//33 34//34
f 35//35 36//36 37//37
f 27//27 38//38 29//29
f 39//39 34//34 40//40
f 41//41 42//42 43//43
f 37//37 44//44 45//45
f 43//43 27//27 26//26
f 44//44 43//43 45//45
f 43//43 44//44 41//41
f 46//46 26//26 47//47
f 48//48 49//49 50//50
f 40//40 48//48 39//39
f 48//48 40//40 49//49
f 47//47 51//51 46//46
f 26//26 45//45 43//43
f 50//50 52//52 48//48
f 34//34 33//33 53//53
f 34//34 54//54 32//32
f 26//26 28//28 47//47
f 26//26 31//31 45//45
f 26//26 34//34 30//30
f 53//53 40//40 34//34
f 34//34 26//26 54//54
f 37//37 45//45 35//35
f 55//55 56//56 57//57
f 57//57 58//58 55//55
f 59//59 60//60 61//61
f 61//61 62//62 59//59
f 63//63 64//64 65//65
f 65//65 66//66 63//63
f 67//67 68//68 69//69
f 69//69 70//70 67//67
f 71//71 72//72 73//73
f 73//73 74//74 71//71
f 75//75 76//76 77//77
f 77//77 78//78 75//75
f 79//79 80//80 81//81
f 81//81 82//82 79//79
f 83//83 84//84 85//85
f 86//86 85//85 87//87
f 88//88 89//89 90//90
f 83//83 85//85 86//86
f 87//87 90//90 86//86
f 90//90 91//91 88//88
f 91//91 92//92 88//88
f 87//87 91//91 90//90
f 86//86 93//93 83//83
f 94//94 95//95 96//96
f 96//96 97//97 94//94
f 98//98 99//99 100//100
f 101//101 102//102 103//103
f 104//104 105//105 103//103
f 103//103 102//102 104//104
f 105//105 104//104 106//106
f 100//100 106//106 98//98
f 96//96 99//99 98//98
f 107//107 108//108 109//109
f 110//110 109//109 111//111
f 112//112 111//111 113//113
f 114//114 113//113 115//115
f 116//116 115//115 117//117
f 118//118 119//119 94//94
f 120//120 121//121 122//122
f 123//123 124//124 125//125
f 126//126 125//125 127//127
f 128//128 127//127 129//129
f 130//130 129//129 131//131
f 132//132 131//131 133//133
f 134//134 133//133 108//108
f 108//108 107//107 134//134
f 135//135 117//117 121//121
f 136//136 122//122 137//137
f 133//133 134//134 132//132
f 131//131 132//132 130//130
f 129//129 130//130 128//128
f 127//127 128//128 126//126
f 125//125 126//126 123//123
f 138//138 137//137 139//139
f 140//140 139//139 102//102
f 94//94 97//97 118//118
f 124//124 123//123 141//141
f 142//142 143//143 144//144
f 141//141 144//144 124//124
f 106//106 100//100 105//105
f 144//144 141//141 142//142
f 143//143 142//142 119//119
f 102//102 101//101 140//140
f 139//139 140//140 138//138
f 137//137 138//138 136//136
f 103//103 145//145 101//101
f 122//122 136//136 120//120
f 121//121 120//120 135//135
f 117//117 135//135 116//116
f 115//115 116//116 114//114
f 113//113 114//114 112//112
f 111//111 112//112 110//110
f 109//109 110//110 107//107
f 98//98 97//97 96//96
f 119//119 118//118 143//143
